<mxfile host="app.diagrams.net" agent="Mozilla/5.0 (Windows NT 10.0; Win64; x64) AppleWebKit/537.36 (KHTML, like Gecko) Chrome/137.0.0.0 Safari/537.36" version="27.2.0">
  <diagram id="htYQ15RylqfhqE9Nk0gL" name="Storage">
    <mxGraphModel dx="1665" dy="743" grid="1" gridSize="10" guides="1" tooltips="1" connect="1" arrows="1" fold="1" page="1" pageScale="1" pageWidth="850" pageHeight="1100" math="0" shadow="0">
      <root>
        <mxCell id="0" />
        <mxCell id="1" parent="0" />
        <mxCell id="mUhUNBeNzGYd8A6W79f1-1" value="" style="whiteSpace=wrap;html=1;aspect=fixed;" vertex="1" parent="1">
          <mxGeometry x="75" y="40" width="80" height="80" as="geometry" />
        </mxCell>
        <mxCell id="mUhUNBeNzGYd8A6W79f1-2" value="Instance Store" style="text;html=1;align=center;verticalAlign=middle;resizable=0;points=[];autosize=1;strokeColor=none;fillColor=none;" vertex="1" parent="1">
          <mxGeometry x="65" y="128" width="100" height="30" as="geometry" />
        </mxCell>
        <mxCell id="mUhUNBeNzGYd8A6W79f1-3" value="" style="whiteSpace=wrap;html=1;aspect=fixed;" vertex="1" parent="1">
          <mxGeometry x="200" y="40" width="80" height="80" as="geometry" />
        </mxCell>
        <mxCell id="mUhUNBeNzGYd8A6W79f1-4" value="EBS" style="text;html=1;align=center;verticalAlign=middle;resizable=0;points=[];autosize=1;strokeColor=none;fillColor=none;" vertex="1" parent="1">
          <mxGeometry x="215" y="128" width="50" height="30" as="geometry" />
        </mxCell>
        <mxCell id="mUhUNBeNzGYd8A6W79f1-5" value="" style="whiteSpace=wrap;html=1;aspect=fixed;" vertex="1" parent="1">
          <mxGeometry x="310" y="40" width="80" height="80" as="geometry" />
        </mxCell>
        <mxCell id="mUhUNBeNzGYd8A6W79f1-6" value="EFS" style="text;html=1;align=center;verticalAlign=middle;resizable=0;points=[];autosize=1;strokeColor=none;fillColor=none;" vertex="1" parent="1">
          <mxGeometry x="325" y="128" width="50" height="30" as="geometry" />
        </mxCell>
        <mxCell id="mUhUNBeNzGYd8A6W79f1-7" value="" style="whiteSpace=wrap;html=1;aspect=fixed;" vertex="1" parent="1">
          <mxGeometry x="70" y="270" width="280" height="280" as="geometry" />
        </mxCell>
        <mxCell id="mUhUNBeNzGYd8A6W79f1-8" value="" style="whiteSpace=wrap;html=1;aspect=fixed;" vertex="1" parent="1">
          <mxGeometry x="90" y="300" width="230" height="230" as="geometry" />
        </mxCell>
        <mxCell id="mUhUNBeNzGYd8A6W79f1-9" value="Region" style="text;html=1;align=center;verticalAlign=middle;resizable=0;points=[];autosize=1;strokeColor=none;fillColor=none;" vertex="1" parent="1">
          <mxGeometry x="70" y="240" width="60" height="30" as="geometry" />
        </mxCell>
        <mxCell id="mUhUNBeNzGYd8A6W79f1-10" value="VPC" style="text;html=1;align=center;verticalAlign=middle;resizable=0;points=[];autosize=1;strokeColor=none;fillColor=none;" vertex="1" parent="1">
          <mxGeometry x="90" y="270" width="50" height="30" as="geometry" />
        </mxCell>
        <mxCell id="mUhUNBeNzGYd8A6W79f1-11" value="AZ" style="text;html=1;align=center;verticalAlign=middle;resizable=0;points=[];autosize=1;strokeColor=none;fillColor=none;" vertex="1" parent="1">
          <mxGeometry x="110" y="300" width="40" height="30" as="geometry" />
        </mxCell>
        <mxCell id="mUhUNBeNzGYd8A6W79f1-14" value="" style="whiteSpace=wrap;html=1;aspect=fixed;" vertex="1" parent="1">
          <mxGeometry x="110" y="330" width="190" height="190" as="geometry" />
        </mxCell>
        <mxCell id="mUhUNBeNzGYd8A6W79f1-16" value="Ec2" style="whiteSpace=wrap;html=1;aspect=fixed;" vertex="1" parent="1">
          <mxGeometry x="140" y="350" width="50" height="50" as="geometry" />
        </mxCell>
        <mxCell id="mUhUNBeNzGYd8A6W79f1-18" value="&lt;span style=&quot;text-wrap-mode: nowrap;&quot;&gt;Instanace&amp;nbsp;&lt;/span&gt;&lt;div&gt;&lt;span style=&quot;text-wrap-mode: nowrap;&quot;&gt;Store&lt;/span&gt;&lt;/div&gt;" style="whiteSpace=wrap;html=1;aspect=fixed;" vertex="1" parent="1">
          <mxGeometry x="135" y="430" width="60" height="60" as="geometry" />
        </mxCell>
        <mxCell id="mUhUNBeNzGYd8A6W79f1-20" value="" style="endArrow=classic;startArrow=classic;html=1;rounded=0;exitX=0.5;exitY=0;exitDx=0;exitDy=0;entryX=0.5;entryY=1;entryDx=0;entryDy=0;" edge="1" parent="1" source="mUhUNBeNzGYd8A6W79f1-18" target="mUhUNBeNzGYd8A6W79f1-16">
          <mxGeometry width="50" height="50" relative="1" as="geometry">
            <mxPoint x="400" y="410" as="sourcePoint" />
            <mxPoint x="450" y="360" as="targetPoint" />
          </mxGeometry>
        </mxCell>
        <mxCell id="mUhUNBeNzGYd8A6W79f1-23" value="Ec2" style="whiteSpace=wrap;html=1;aspect=fixed;" vertex="1" parent="1">
          <mxGeometry x="230" y="350" width="50" height="50" as="geometry" />
        </mxCell>
        <mxCell id="mUhUNBeNzGYd8A6W79f1-24" value="&lt;span style=&quot;text-wrap-mode: nowrap;&quot;&gt;Instanace&amp;nbsp;&lt;/span&gt;&lt;div&gt;&lt;span style=&quot;text-wrap-mode: nowrap;&quot;&gt;Store&lt;/span&gt;&lt;/div&gt;" style="whiteSpace=wrap;html=1;aspect=fixed;" vertex="1" parent="1">
          <mxGeometry x="225" y="428" width="60" height="60" as="geometry" />
        </mxCell>
        <mxCell id="mUhUNBeNzGYd8A6W79f1-25" value="" style="endArrow=classic;startArrow=classic;html=1;rounded=0;exitX=0.5;exitY=0;exitDx=0;exitDy=0;entryX=0.5;entryY=1;entryDx=0;entryDy=0;" edge="1" parent="1" source="mUhUNBeNzGYd8A6W79f1-24" target="mUhUNBeNzGYd8A6W79f1-23">
          <mxGeometry width="50" height="50" relative="1" as="geometry">
            <mxPoint x="270" y="480" as="sourcePoint" />
            <mxPoint x="270" y="440" as="targetPoint" />
          </mxGeometry>
        </mxCell>
        <mxCell id="mUhUNBeNzGYd8A6W79f1-26" value="Instance Store&lt;div&gt;&lt;br&gt;&lt;/div&gt;" style="text;html=1;align=center;verticalAlign=middle;resizable=0;points=[];autosize=1;strokeColor=none;fillColor=none;" vertex="1" parent="1">
          <mxGeometry x="450" y="263" width="100" height="40" as="geometry" />
        </mxCell>
        <mxCell id="mUhUNBeNzGYd8A6W79f1-27" value="Temp Storage, loses data after Ec2 get Down&lt;div&gt;High Performace&lt;/div&gt;&lt;div&gt;No Additional Cost&lt;/div&gt;" style="text;html=1;align=center;verticalAlign=middle;resizable=0;points=[];autosize=1;strokeColor=none;fillColor=none;" vertex="1" parent="1">
          <mxGeometry x="460" y="290" width="260" height="60" as="geometry" />
        </mxCell>
        <mxCell id="mUhUNBeNzGYd8A6W79f1-28" value="" style="whiteSpace=wrap;html=1;aspect=fixed;" vertex="1" parent="1">
          <mxGeometry x="65" y="690" width="280" height="280" as="geometry" />
        </mxCell>
        <mxCell id="mUhUNBeNzGYd8A6W79f1-29" value="" style="whiteSpace=wrap;html=1;aspect=fixed;" vertex="1" parent="1">
          <mxGeometry x="85" y="720" width="230" height="230" as="geometry" />
        </mxCell>
        <mxCell id="mUhUNBeNzGYd8A6W79f1-30" value="Region" style="text;html=1;align=center;verticalAlign=middle;resizable=0;points=[];autosize=1;strokeColor=none;fillColor=none;" vertex="1" parent="1">
          <mxGeometry x="65" y="660" width="60" height="30" as="geometry" />
        </mxCell>
        <mxCell id="mUhUNBeNzGYd8A6W79f1-31" value="VPC" style="text;html=1;align=center;verticalAlign=middle;resizable=0;points=[];autosize=1;strokeColor=none;fillColor=none;" vertex="1" parent="1">
          <mxGeometry x="85" y="690" width="50" height="30" as="geometry" />
        </mxCell>
        <mxCell id="mUhUNBeNzGYd8A6W79f1-32" value="AZ" style="text;html=1;align=center;verticalAlign=middle;resizable=0;points=[];autosize=1;strokeColor=none;fillColor=none;" vertex="1" parent="1">
          <mxGeometry x="105" y="720" width="40" height="30" as="geometry" />
        </mxCell>
        <mxCell id="mUhUNBeNzGYd8A6W79f1-33" value="" style="whiteSpace=wrap;html=1;aspect=fixed;" vertex="1" parent="1">
          <mxGeometry x="105" y="750" width="190" height="190" as="geometry" />
        </mxCell>
        <mxCell id="mUhUNBeNzGYd8A6W79f1-34" value="Ec2" style="whiteSpace=wrap;html=1;aspect=fixed;" vertex="1" parent="1">
          <mxGeometry x="135" y="770" width="50" height="50" as="geometry" />
        </mxCell>
        <mxCell id="mUhUNBeNzGYd8A6W79f1-35" value="&lt;span style=&quot;text-wrap-mode: nowrap;&quot;&gt;EBS&amp;nbsp;&lt;/span&gt;&lt;div&gt;&lt;span style=&quot;text-wrap-mode: nowrap;&quot;&gt;Volume&lt;/span&gt;&lt;/div&gt;" style="whiteSpace=wrap;html=1;aspect=fixed;" vertex="1" parent="1">
          <mxGeometry x="130" y="850" width="60" height="60" as="geometry" />
        </mxCell>
        <mxCell id="mUhUNBeNzGYd8A6W79f1-36" value="" style="endArrow=classic;startArrow=classic;html=1;rounded=0;exitX=0.5;exitY=0;exitDx=0;exitDy=0;entryX=0.5;entryY=1;entryDx=0;entryDy=0;" edge="1" parent="1" source="mUhUNBeNzGYd8A6W79f1-35" target="mUhUNBeNzGYd8A6W79f1-34">
          <mxGeometry width="50" height="50" relative="1" as="geometry">
            <mxPoint x="395" y="830" as="sourcePoint" />
            <mxPoint x="445" y="780" as="targetPoint" />
          </mxGeometry>
        </mxCell>
        <mxCell id="mUhUNBeNzGYd8A6W79f1-37" value="Ec2" style="whiteSpace=wrap;html=1;aspect=fixed;" vertex="1" parent="1">
          <mxGeometry x="225" y="770" width="50" height="50" as="geometry" />
        </mxCell>
        <mxCell id="mUhUNBeNzGYd8A6W79f1-38" value="&lt;span style=&quot;text-wrap-mode: nowrap;&quot;&gt;EBS&amp;nbsp;&lt;/span&gt;&lt;div&gt;&lt;span style=&quot;text-wrap-mode: nowrap;&quot;&gt;Volume&lt;/span&gt;&lt;/div&gt;" style="whiteSpace=wrap;html=1;aspect=fixed;" vertex="1" parent="1">
          <mxGeometry x="220" y="848" width="60" height="60" as="geometry" />
        </mxCell>
        <mxCell id="mUhUNBeNzGYd8A6W79f1-39" value="" style="endArrow=classic;startArrow=classic;html=1;rounded=0;exitX=0.5;exitY=0;exitDx=0;exitDy=0;entryX=0.5;entryY=1;entryDx=0;entryDy=0;" edge="1" parent="1" source="mUhUNBeNzGYd8A6W79f1-38" target="mUhUNBeNzGYd8A6W79f1-37">
          <mxGeometry width="50" height="50" relative="1" as="geometry">
            <mxPoint x="265" y="900" as="sourcePoint" />
            <mxPoint x="265" y="860" as="targetPoint" />
          </mxGeometry>
        </mxCell>
        <mxCell id="mUhUNBeNzGYd8A6W79f1-40" value="EBS Volume" style="text;html=1;align=center;verticalAlign=middle;resizable=0;points=[];autosize=1;strokeColor=none;fillColor=none;" vertex="1" parent="1">
          <mxGeometry x="415" y="678" width="90" height="30" as="geometry" />
        </mxCell>
        <mxCell id="mUhUNBeNzGYd8A6W79f1-41" value="&lt;div&gt;Persistence Volume if Ec2 get downs&lt;/div&gt;&lt;div&gt;Ebs provides consistent &amp;amp; low latency performace&lt;/div&gt;Its good for OS boot volumes, db storages &amp;amp; app file Storage&lt;div&gt;We can take snapshots &amp;amp; store in s3&lt;/div&gt;" style="text;html=1;align=left;verticalAlign=middle;resizable=0;points=[];autosize=1;strokeColor=none;fillColor=none;" vertex="1" parent="1">
          <mxGeometry x="425" y="700" width="350" height="70" as="geometry" />
        </mxCell>
        <mxCell id="mUhUNBeNzGYd8A6W79f1-42" value="" style="whiteSpace=wrap;html=1;aspect=fixed;" vertex="1" parent="1">
          <mxGeometry x="65" y="1050" width="280" height="280" as="geometry" />
        </mxCell>
        <mxCell id="mUhUNBeNzGYd8A6W79f1-43" value="" style="whiteSpace=wrap;html=1;aspect=fixed;" vertex="1" parent="1">
          <mxGeometry x="85" y="1080" width="230" height="230" as="geometry" />
        </mxCell>
        <mxCell id="mUhUNBeNzGYd8A6W79f1-44" value="Region" style="text;html=1;align=center;verticalAlign=middle;resizable=0;points=[];autosize=1;strokeColor=none;fillColor=none;" vertex="1" parent="1">
          <mxGeometry x="65" y="1020" width="60" height="30" as="geometry" />
        </mxCell>
        <mxCell id="mUhUNBeNzGYd8A6W79f1-45" value="VPC" style="text;html=1;align=center;verticalAlign=middle;resizable=0;points=[];autosize=1;strokeColor=none;fillColor=none;" vertex="1" parent="1">
          <mxGeometry x="85" y="1050" width="50" height="30" as="geometry" />
        </mxCell>
        <mxCell id="mUhUNBeNzGYd8A6W79f1-46" value="AZ" style="text;html=1;align=center;verticalAlign=middle;resizable=0;points=[];autosize=1;strokeColor=none;fillColor=none;" vertex="1" parent="1">
          <mxGeometry x="105" y="1080" width="40" height="30" as="geometry" />
        </mxCell>
        <mxCell id="mUhUNBeNzGYd8A6W79f1-47" value="Mount Pt" style="whiteSpace=wrap;html=1;aspect=fixed;" vertex="1" parent="1">
          <mxGeometry x="105" y="1110" width="190" height="190" as="geometry" />
        </mxCell>
        <mxCell id="mUhUNBeNzGYd8A6W79f1-54" value="" style="edgeStyle=orthogonalEdgeStyle;rounded=0;orthogonalLoop=1;jettySize=auto;html=1;" edge="1" parent="1" source="mUhUNBeNzGYd8A6W79f1-48" target="mUhUNBeNzGYd8A6W79f1-49">
          <mxGeometry relative="1" as="geometry" />
        </mxCell>
        <mxCell id="mUhUNBeNzGYd8A6W79f1-48" value="Ec2" style="whiteSpace=wrap;html=1;aspect=fixed;" vertex="1" parent="1">
          <mxGeometry x="135" y="1130" width="50" height="50" as="geometry" />
        </mxCell>
        <mxCell id="mUhUNBeNzGYd8A6W79f1-49" value="&lt;span style=&quot;text-wrap-mode: nowrap;&quot;&gt;EBS&amp;nbsp;&lt;/span&gt;&lt;div&gt;&lt;span style=&quot;text-wrap-mode: nowrap;&quot;&gt;Volume&lt;/span&gt;&lt;/div&gt;" style="whiteSpace=wrap;html=1;aspect=fixed;" vertex="1" parent="1">
          <mxGeometry x="175" y="1230" width="60" height="60" as="geometry" />
        </mxCell>
        <mxCell id="mUhUNBeNzGYd8A6W79f1-55" value="" style="edgeStyle=orthogonalEdgeStyle;rounded=0;orthogonalLoop=1;jettySize=auto;html=1;" edge="1" parent="1" source="mUhUNBeNzGYd8A6W79f1-51" target="mUhUNBeNzGYd8A6W79f1-49">
          <mxGeometry relative="1" as="geometry" />
        </mxCell>
        <mxCell id="mUhUNBeNzGYd8A6W79f1-51" value="Ec2" style="whiteSpace=wrap;html=1;aspect=fixed;" vertex="1" parent="1">
          <mxGeometry x="225" y="1130" width="50" height="50" as="geometry" />
        </mxCell>
        <mxCell id="mUhUNBeNzGYd8A6W79f1-56" value="Amazon Elastic File System" style="text;html=1;align=center;verticalAlign=middle;resizable=0;points=[];autosize=1;strokeColor=none;fillColor=none;" vertex="1" parent="1">
          <mxGeometry x="395" y="1048" width="170" height="30" as="geometry" />
        </mxCell>
        <mxCell id="mUhUNBeNzGYd8A6W79f1-57" value="Simple&lt;div&gt;Cost Effetcive&lt;/div&gt;&lt;div&gt;Scalable&lt;/div&gt;&lt;div&gt;Available&lt;/div&gt;&lt;div&gt;Accessible from more Ec2 instances&lt;/div&gt;" style="text;html=1;align=left;verticalAlign=middle;resizable=0;points=[];autosize=1;strokeColor=none;fillColor=none;" vertex="1" parent="1">
          <mxGeometry x="410" y="1080" width="220" height="90" as="geometry" />
        </mxCell>
      </root>
    </mxGraphModel>
  </diagram>
</mxfile>
